<?xml version="1.0" encoding="utf-8"?>
<?xml-stylesheet type="text/xsl" href="rss1.xsl"?>
<rss version="2.0" xmlns:atom="http://www.w3.org/2005/Atom" xmlns:content="http://purl.org/rss/1.0/modules/content/" xmlns:dc="http://purl.org/dc/elements/1.1/" xmlns:media="http://search.yahoo.com/mrss/">
<channel>
 <title>Getty</title>
 <link>http://www.gettyimg.com/</link>
 <atom:link href="http://www.gettyimg.com/" rel="self" type="application/rss+xml" />

 
                <item>
                <title><![CDATA[【Apple Music】WEB-RiP - Josh Groban - You Raise Me Up (Remastered) (1080p)]]></title>
                <link><![CDATA[https://sharemania.us/threads/josh-groban-you-raise-me-up-remastered-1080p.248990/]]></link>
                <description><![CDATA[<article>
<blockquote class="messageText SelectQuoteContainer ugc baseHtml">
<img src="https://i.postimg.cc/NFQMBwyY/Josh-Groban-You-Raise-Me-Up-Remastered-mp4.jpg" class="bbCodeImage LbImage" alt="[​IMG]" data-url="https://i.postimg.cc/NFQMBwyY/Josh-Groban-You-Raise-Me-Up-Remastered-mp4.jpg" style=""><br>
<br>
<div class="bbCodeBlock bbCodeCode">
<div class="type">Code:</div>
<pre>General
Complete name                  : G:\Новая папка\Josh Groban - You Raise Me Up (Remastered).mp4
Format                         : MPEG-4
Format profile                 : Base Media
Codec ID                       : isom (isom/iso2/avc1/mp41)
File size                      : 236 MiB
Duration                       : 4 min 51 s
Overall bit rate               : 6 792 kb/s
Frame rate                     : 23.976 FPS
Movie name                     : You Raise Me Up (Remastered)
Performer                      : Josh Groban
Genre                          : Pop
ContentType                    : Music Video
Recorded date                  : 2004-09-10 07:00:00 UTC
Writing application            : Lavf56.30.100
Copyright                      : ℗ © 2023 Reprise Records

Video
ID                             : 1
Format                         : AVC
Format/Info                    : Advanced Video Codec
Format profile                 : High@L4
Format settings                : CABAC / 5 Ref Frames
Format settings, CABAC         : Yes
Format settings, Reference fra : 5 frames
Format settings, Slice count   : 8 slices per frame
Codec ID                       : avc1
Codec ID/Info                  : Advanced Video Coding
Duration                       : 4 min 51 s
Bit rate                       : 6 524 kb/s
Width                          : 1 440 pixels
Height                         : 1 080 pixels
Display aspect ratio           : 4:3
Frame rate mode                : Constant
Frame rate                     : 23.976 (24000/1001) FPS
Color space                    : YUV
Chroma subsampling             : 4:2:0
Bit depth                      : 8 bits
Scan type                      : Progressive
Bits/(Pixel*Frame)             : 0.175
Stream size                    : 226 MiB (96%)
Color range                    : Limited
Color primaries                : BT.709
Transfer characteristics       : BT.709
Matrix coefficients            : BT.709
Codec configuration box        : avcC

Audio
ID                             : 2
Format                         : AAC LC
Format/Info                    : Advanced Audio Codec Low Complexity
Codec ID                       : mp4a-40-2
Duration                       : 4 min 51 s
Duration_LastFrame             : -8 ms
Bit rate mode                  : Constant
Bit rate                       : 265 kb/s
Channel(s)                     : 2 channels
Channel layout                 : L R
Sampling rate                  : 48.0 kHz
Frame rate                     : 46.875 FPS (1024 SPF)
Compression mode               : Lossy
Stream size                    : 9.13 MiB (4%)
Default                        : Yes
Alternate group                : 1

</pre>
</div>
<div class="bbCodeBlock bbCodeVfcHH HiddenContent">
<div class="attribution type">Hidden Content:</div>
<blockquote>You must either reply or click 'Like' to see the hidden information contained here.</blockquote>
</div>
<div class="messageTextEndMarker">&nbsp;</div>
</blockquote>
</article>]]></description>
                <author><![CDATA[vitalya3]]></author>
                </item>

                
                <item>
                <title><![CDATA[【UPSCALED】The Weeknd - Save Your Tears [RTX HDR]]]></title>
                <link><![CDATA[https://sharemania.us/threads/the-weeknd-save-your-tears-rtx-hdr.248992/]]></link>
                <description><![CDATA[<article>
<blockquote class="messageText SelectQuoteContainer ugc baseHtml">
<span style="font-size: 18px">Let's go the USUK music now, <b><span style="color: #00b3b3">HDR10 PQ</span></b> through <span style="color: #00b300"><b>RTX HDR</b></span> upscale on this MV is magnificent. <br>
</span><br>
<span style="font-size: 10px"><span style="color: #ff0000"><span style="text-decoration: underline">(warning: this video contains lots of flashy scene, HDR makes it more even bright, so be careful if you have Epilepsy)</span></span></span><br>
<br>
<div class="bbCodeBlock bbCodeVfcHH HiddenContent">
<div class="attribution type">Hidden Content:</div>
<blockquote>You must either reply or click 'Like' to see the hidden information contained here.</blockquote>
</div><span style="font-size: 18px"><br>
Fileinfo</span><br>
<div class="bbCodeBlock bbCodeVfcHH HiddenContent">
<div class="attribution type">Hidden Content:</div>
<blockquote>You must either reply or click 'Like' to see the hidden information contained here.</blockquote>
</div>
<div class="messageTextEndMarker">&nbsp;</div>
</blockquote>
</article>]]></description>
                <author><![CDATA[ch3v4li3r]]></author>
                </item>

                
                <item>
                <title><![CDATA[【Apple Music】WEB-RiP - Mariana BO x Jerome feat. Crooked Bangs - Light Up (1080p)]]></title>
                <link><![CDATA[https://sharemania.us/threads/mariana-bo-x-jerome-feat-crooked-bangs-light-up-1080p.248991/]]></link>
                <description><![CDATA[<article>
<blockquote class="messageText SelectQuoteContainer ugc baseHtml">
<img src="https://i.postimg.cc/Ssf9WdCS/Mariana-BO-x-Jerome-feat-Crooked-Bangs-Light-Up-mp4.jpg" class="bbCodeImage LbImage" alt="[​IMG]" data-url="https://i.postimg.cc/Ssf9WdCS/Mariana-BO-x-Jerome-feat-Crooked-Bangs-Light-Up-mp4.jpg" style=""><br>
<br>
<div class="bbCodeBlock bbCodeCode">
<div class="type">Code:</div>
<pre>General
Complete name                  : G:\Новая папка\Mariana BO x Jerome feat. Crooked Bangs - Light Up.mp4
Format                         : MPEG-4
Format profile                 : Base Media
Codec ID                       : isom (isom/iso2/avc1/mp41)
File size                      : 188 MiB
Duration                       : 2 min 41 s
Overall bit rate               : 9 792 kb/s
Frame rate                     : 25.000 FPS
Movie name                     : Light Up (feat. Crooked Bangs)
Performer                      : Mariana BO &amp; Jerome
Genre                          : Dance
ContentType                    : Music Video
Recorded date                  : 2022-04-29 07:00:00 UTC
Writing application            : Lavf56.30.100
Copyright                      : ℗ 2022 Kontor Records GmbH / Paper Rocket Music

Video
ID                             : 1
Format                         : AVC
Format/Info                    : Advanced Video Codec
Format profile                 : High@L4
Format settings                : CABAC / 4 Ref Frames
Format settings, CABAC         : Yes
Format settings, Reference fra : 4 frames
Format settings, Slice count   : 8 slices per frame
Codec ID                       : avc1
Codec ID/Info                  : Advanced Video Coding
Duration                       : 2 min 41 s
Bit rate                       : 9 528 kb/s
Width                          : 1 920 pixels
Height                         : 934 pixels
Display aspect ratio           : 2.056
Frame rate mode                : Constant
Frame rate                     : 25.000 FPS
Color space                    : YUV
Chroma subsampling             : 4:2:0
Bit depth                      : 8 bits
Scan type                      : Progressive
Bits/(Pixel*Frame)             : 0.213
Stream size                    : 183 MiB (97%)
Color range                    : Limited
Color primaries                : BT.709
Transfer characteristics       : BT.709
Matrix coefficients            : BT.709
Codec configuration box        : avcC

Audio
ID                             : 2
Format                         : AAC LC
Format/Info                    : Advanced Audio Codec Low Complexity
Codec ID                       : mp4a-40-2
Duration                       : 2 min 41 s
Bit rate mode                  : Constant
Bit rate                       : 265 kb/s
Channel(s)                     : 2 channels
Channel layout                 : L R
Sampling rate                  : 48.0 kHz
Frame rate                     : 46.875 FPS (1024 SPF)
Compression mode               : Lossy
Stream size                    : 5.02 MiB (3%)
Default                        : Yes
Alternate group                : 1

</pre>
</div><br>
<div class="bbCodeBlock bbCodeVfcHH HiddenContent">
<div class="attribution type">Hidden Content:</div>
<blockquote>You must either reply or click 'Like' to see the hidden information contained here.</blockquote>
</div>
<div class="messageTextEndMarker">&nbsp;</div>
</blockquote>
</article>]]></description>
                <author><![CDATA[vitalya3]]></author>
                </item>

                
                <item>
                <title><![CDATA[【Albums (lossless)】ALAC - Lea Michele - Louder (Digital deluxe version) (16 bit /44.1Khz)]]></title>
                <link><![CDATA[https://sharemania.us/threads/lea-michele-louder-digital-deluxe-version-16-bit-44-1khz.248987/]]></link>
                <description><![CDATA[<article>
<blockquote class="messageText SelectQuoteContainer ugc baseHtml">
<div style="text-align: center"><img src="https://upload.wikimedia.org/wikipedia/en/f/f2/Lea_Michele_-_Louder_%28Official_Album_Cover%29.png" class="bbCodeImage LbImage" alt="[​IMG]" data-url="https://upload.wikimedia.org/wikipedia/en/f/f2/Lea_Michele_-_Louder_%28Official_Album_Cover%29.png" style=""><br>
<div class="bbCodeBlock bbCodeVfcHH HiddenContent">
<div class="attribution type">Hidden Content:</div>
<blockquote>You must reply before you can see the hidden data contained here.</blockquote>
</div> <br>
​</div>
<div class="messageTextEndMarker">&nbsp;</div>
</blockquote>
</article>]]></description>
                <author><![CDATA[ifuseekme]]></author>
                </item>

                
                <item>
                <title><![CDATA[【Requests】[REQ AUD] - Changing Faces - All Day, All Night]]></title>
                <link><![CDATA[https://sharemania.us/threads/changing-faces-all-day-all-night.248989/]]></link>
                <description><![CDATA[<article>
<blockquote class="messageText SelectQuoteContainer ugc baseHtml">
Hi please can someone get me this amazing album in highest possible quality? would mean so much. thank you.<br>
<br>
<a href="https://music.apple.com/us/album/all-day-all-night/357934227" target="_blank" class="externalLink" rel="nofollow">https://music.apple.com/us/album/all-day-all-night/357934227</a><br>
<br>
<br>
(Theres also a rare no rap version of the song All Of My Days if possible would be the cherry on the cake!)
<div class="messageTextEndMarker">&nbsp;</div>
</blockquote>
</article>]]></description>
                <author><![CDATA[One&amp;Only]]></author>
                </item>

                
                <item>
                <title><![CDATA[【Apple Music】WEB-RiP - Ruby - Miracle of Love (1080p)]]></title>
                <link><![CDATA[https://sharemania.us/threads/ruby-miracle-of-love-1080p.248993/]]></link>
                <description><![CDATA[<article>
<blockquote class="messageText SelectQuoteContainer ugc baseHtml">
<img src="https://i.postimg.cc/dV9DN3D6/Ruby-Miracle-of-Love-mp4.jpg" class="bbCodeImage LbImage" alt="[​IMG]" data-url="https://i.postimg.cc/dV9DN3D6/Ruby-Miracle-of-Love-mp4.jpg" style=""><br>
<br>
<div class="bbCodeBlock bbCodeCode">
<div class="type">Code:</div>
<pre>General
Complete name                  : G:\Новая папка\Ruby - Miracle of Love.mp4
Format                         : MPEG-4
Format profile                 : Base Media
Codec ID                       : isom (isom/iso2/avc1/mp41)
File size                      : 144 MiB
Duration                       : 3 min 3 s
Overall bit rate               : 6 592 kb/s
Frame rate                     : 29.970 FPS
Movie name                     : Miracle of Love
Performer                      : Ruby
Genre                          : Dance
ContentType                    : Music Video
Recorded date                  : 2022-01-13 08:00:00 UTC
Writing application            : Lavf56.30.100
Copyright                      : ℗ 2012 Cat Music

Video
ID                             : 1
Format                         : AVC
Format/Info                    : Advanced Video Codec
Format profile                 : High@L4
Format settings                : CABAC / 5 Ref Frames
Format settings, CABAC         : Yes
Format settings, Reference fra : 5 frames
Format settings, Slice count   : 8 slices per frame
Codec ID                       : avc1
Codec ID/Info                  : Advanced Video Coding
Duration                       : 3 min 3 s
Bit rate                       : 6 322 kb/s
Width                          : 1 920 pixels
Height                         : 864 pixels
Display aspect ratio           : 2.222
Frame rate mode                : Constant
Frame rate                     : 29.970 (30000/1001) FPS
Color space                    : YUV
Chroma subsampling             : 4:2:0
Bit depth                      : 8 bits
Scan type                      : Progressive
Bits/(Pixel*Frame)             : 0.127
Stream size                    : 138 MiB (96%)
Color range                    : Limited
Color primaries                : BT.709
Transfer characteristics       : BT.709
Matrix coefficients            : BT.709
Codec configuration box        : avcC

Audio
ID                             : 2
Format                         : AAC LC
Format/Info                    : Advanced Audio Codec Low Complexity
Codec ID                       : mp4a-40-2
Duration                       : 3 min 3 s
Duration_LastFrame             : -12 ms
Bit rate mode                  : Constant
Bit rate                       : 265 kb/s
Channel(s)                     : 2 channels
Channel layout                 : L R
Sampling rate                  : 48.0 kHz
Frame rate                     : 46.875 FPS (1024 SPF)
Compression mode               : Lossy
Stream size                    : 5.74 MiB (4%)
Default                        : Yes
Alternate group                : 1

</pre>
</div>
<div class="bbCodeBlock bbCodeVfcHH HiddenContent">
<div class="attribution type">Hidden Content:</div>
<blockquote>You must either reply or click 'Like' to see the hidden information contained here.</blockquote>
</div>
<div class="messageTextEndMarker">&nbsp;</div>
</blockquote>
</article>]]></description>
                <author><![CDATA[vitalya3]]></author>
                </item>

                
                <item>
                <title><![CDATA[【Apple Music】WEB-RiP - Kendrick Lamar &amp; SZA - All the Stars (1080p)]]></title>
                <link><![CDATA[https://sharemania.us/threads/kendrick-lamar-sza-all-the-stars-1080p.248988/]]></link>
                <description><![CDATA[<article>
<blockquote class="messageText SelectQuoteContainer ugc baseHtml">
<img src="https://i.postimg.cc/pdS3YQQF/Kendrick-Lamar-SZA-All-the-Stars-mp4.jpg" class="bbCodeImage LbImage" alt="[​IMG]" data-url="https://i.postimg.cc/pdS3YQQF/Kendrick-Lamar-SZA-All-the-Stars-mp4.jpg" style=""><br>
<br>
<div class="bbCodeBlock bbCodeCode">
<div class="type">Code:</div>
<pre>General
Complete name                  : G:\Новая папка\Kendrick Lamar &amp; SZA - All the Stars.mp4
Format                         : MPEG-4
Format profile                 : Base Media
Codec ID                       : isom (isom/iso2/avc1/mp41)
File size                      : 291 MiB
Duration                       : 3 min 54 s
Overall bit rate               : 10.4 Mb/s
Frame rate                     : 23.976 FPS
Movie name                     : All the Stars
Performer                      : Kendrick Lamar &amp; SZA
Genre                          : Hip-Hop/Rap
ContentType                    : Music Video
Recorded date                  : 2018-02-04 08:00:00 UTC
Writing application            : Lavf56.30.100
Copyright                      : Top Dawg Entertainment/Aftermath/Interscope Records; ℗ 2018 Aftermath Records

Video
ID                             : 1
Format                         : AVC
Format/Info                    : Advanced Video Codec
Format profile                 : High@L4
Format settings                : CABAC / 4 Ref Frames
Format settings, CABAC         : Yes
Format settings, Reference fra : 4 frames
Format settings, Slice count   : 8 slices per frame
Codec ID                       : avc1
Codec ID/Info                  : Advanced Video Coding
Duration                       : 3 min 54 s
Bit rate                       : 10.1 Mb/s
Width                          : 1 912 pixels
Height                         : 1 072 pixels
Display aspect ratio           : 16:9
Frame rate mode                : Variable
Frame rate                     : 23.976 FPS
Minimum frame rate             : 23.976 FPS
Maximum frame rate             : 24.341 FPS
Color space                    : YUV
Chroma subsampling             : 4:2:0
Bit depth                      : 8 bits
Scan type                      : Progressive
Bits/(Pixel*Frame)             : 0.206
Stream size                    : 283 MiB (97%)
Color range                    : Limited
Color primaries                : BT.709
Transfer characteristics       : BT.709
Matrix coefficients            : BT.709
Codec configuration box        : avcC

Audio
ID                             : 2
Format                         : AAC LC
Format/Info                    : Advanced Audio Codec Low Complexity
Codec ID                       : mp4a-40-2
Duration                       : 3 min 54 s
Duration_LastFrame             : -4 ms
Bit rate mode                  : Constant
Bit rate                       : 257 kb/s
Channel(s)                     : 2 channels
Channel layout                 : L R
Sampling rate                  : 48.0 kHz
Frame rate                     : 46.875 FPS (1024 SPF)
Compression mode               : Lossy
Stream size                    : 7.16 MiB (2%)
Default                        : Yes
Alternate group                : 1

</pre>
</div>
<div class="bbCodeBlock bbCodeVfcHH HiddenContent">
<div class="attribution type">Hidden Content:</div>
<blockquote>You must either reply or click 'Like' to see the hidden information contained here.</blockquote>
</div>
<div class="messageTextEndMarker">&nbsp;</div>
</blockquote>
</article>]]></description>
                <author><![CDATA[vitalya3]]></author>
                </item>

                
                <item>
                <title><![CDATA[【Apple Music】WEB-RiP - Noel Holler feat. Leony - Every Morning (1080p)]]></title>
                <link><![CDATA[https://sharemania.us/threads/noel-holler-feat-leony-every-morning-1080p.248985/]]></link>
                <description><![CDATA[<article>
<blockquote class="messageText SelectQuoteContainer ugc baseHtml">
<img src="https://i.postimg.cc/KYC8WM76/Noel-Holler-feat-Leony-Every-Morning-mp4.jpg" class="bbCodeImage LbImage" alt="[​IMG]" data-url="https://i.postimg.cc/KYC8WM76/Noel-Holler-feat-Leony-Every-Morning-mp4.jpg" style=""><br>
<br>
<div class="bbCodeBlock bbCodeCode">
<div class="type">Code:</div>
<pre>General
Complete name                  : G:\Новая папка\Noel Holler feat. Leony - Every Morning.mp4
Format                         : MPEG-4
Format profile                 : Base Media
Codec ID                       : isom (isom/iso2/avc1/mp41)
File size                      : 126 MiB
Duration                       : 2 min 34 s
Overall bit rate               : 6 833 kb/s
Frame rate                     : 23.976 FPS
Movie name                     : Every Morning (feat. Leony)
Performer                      : Noel Holler
Genre                          : Pop
ContentType                    : Music Video
Recorded date                  : 2020-07-31 07:00:00 UTC
Writing application            : Lavf56.30.100
Copyright                      : An Airforce1 Records recording; ℗ 2020 Pelican Songs, under exclusive license to Universal Music GmbH

Video
ID                             : 1
Format                         : AVC
Format/Info                    : Advanced Video Codec
Format profile                 : High@L4
Format settings                : CABAC / 5 Ref Frames
Format settings, CABAC         : Yes
Format settings, Reference fra : 5 frames
Format settings, Slice count   : 8 slices per frame
Codec ID                       : avc1
Codec ID/Info                  : Advanced Video Coding
Duration                       : 2 min 34 s
Bit rate                       : 6 579 kb/s
Width                          : 1 920 pixels
Height                         : 706 pixels
Display aspect ratio           : 2.720
Frame rate mode                : Constant
Frame rate                     : 23.976 (24000/1001) FPS
Color space                    : YUV
Chroma subsampling             : 4:2:0
Bit depth                      : 8 bits
Scan type                      : Progressive
Bits/(Pixel*Frame)             : 0.202
Stream size                    : 121 MiB (96%)
Color range                    : Limited
Color primaries                : BT.709
Transfer characteristics       : BT.709
Matrix coefficients            : BT.709
Codec configuration box        : avcC

Audio
ID                             : 2
Format                         : AAC LC
Format/Info                    : Advanced Audio Codec Low Complexity
Codec ID                       : mp4a-40-2
Duration                       : 2 min 34 s
Duration_LastFrame             : -1 ms
Bit rate mode                  : Constant
Bit rate                       : 250 kb/s
Channel(s)                     : 2 channels
Channel layout                 : L R
Sampling rate                  : 48.0 kHz
Frame rate                     : 46.875 FPS (1024 SPF)
Compression mode               : Lossy
Stream size                    : 4.59 MiB (4%)
Default                        : Yes
Alternate group                : 1

</pre>
</div>
<div class="bbCodeBlock bbCodeVfcHH HiddenContent">
<div class="attribution type">Hidden Content:</div>
<blockquote>You must either reply or click 'Like' to see the hidden information contained here.</blockquote>
</div>
<div class="messageTextEndMarker">&nbsp;</div>
</blockquote>
</article>]]></description>
                <author><![CDATA[vitalya3]]></author>
                </item>

                
                <item>
                <title><![CDATA[【UPSCALED】Red Velvet - WILDSIDE [RTX HDR]]]></title>
                <link><![CDATA[https://sharemania.us/threads/red-velvet-wildside-rtx-hdr.248984/]]></link>
                <description><![CDATA[<article>
<blockquote class="messageText SelectQuoteContainer ugc baseHtml">
<span style="font-size: 18px">very sorry for the frame stuck at the beginning, the rest is ok. </span><span style="font-size: 9px">(stupid program)<br>
</span><br>
<span style="font-size: 18px">Aside from that, best costume ever for this MV and <b><i><span style="color: #b30000">Red Velvet</span></i></b>. So cool, who can imagine 10 years have passed since they debuted in 2014<br>
<br>
<div class="bbCodeBlock bbCodeVfcHH HiddenContent">
<div class="attribution type">Hidden Content:</div>
<blockquote>You must either reply or click 'Like' to see the hidden information contained here.</blockquote>
</div>Fileinfo<br>
</span>
<div class="bbCodeBlock bbCodeVfcHH HiddenContent">
<div class="attribution type">Hidden Content:</div>
<blockquote>You must either reply or click 'Like' to see the hidden information contained here.</blockquote>
</div>
<div class="messageTextEndMarker">&nbsp;</div>
</blockquote>
</article>]]></description>
                <author><![CDATA[ch3v4li3r]]></author>
                </item>

                
                <item>
                <title><![CDATA[【Albums (lossless)】ALAC - Laura Marano - Me (EP) (16 bit/44.1khz)]]></title>
                <link><![CDATA[https://sharemania.us/threads/laura-marano-me-ep-16-bit-44-1khz.248986/]]></link>
                <description><![CDATA[<article>
<blockquote class="messageText SelectQuoteContainer ugc baseHtml">
<div style="text-align: center"><img src="https://is1-ssl.mzstatic.com/image/thumb/Music113/v4/a6/f2/a6/a6f2a6d8-38c3-699c-f5a9-ff5017e31e48/193872190273_cover.jpg/600x600bf-60.jpg" class="bbCodeImage LbImage" alt="[​IMG]" data-url="https://is1-ssl.mzstatic.com/image/thumb/Music113/v4/a6/f2/a6/a6f2a6d8-38c3-699c-f5a9-ff5017e31e48/193872190273_cover.jpg/600x600bf-60.jpg" style=""><br>
<div class="bbCodeBlock bbCodeVfcHH HiddenContent">
<div class="attribution type">Hidden Content:</div>
<blockquote>You must reply before you can see the hidden data contained here.</blockquote>
</div></div>
<div class="messageTextEndMarker">&nbsp;</div>
</blockquote>
</article>]]></description>
                <author><![CDATA[ifuseekme]]></author>
                </item>

                </channel></rss>